<?xml version="1.0" encoding="UTF-8" standalone="no"?>
<svg xmlns="http://www.w3.org/2000/svg">
<rect x="15" y="558" height="42" width = "4"/>
<rect x="20" y="497" height="103" width = "4"/>
<rect x="25" y="502" height="98" width = "4"/>
<rect x="30" y="487" height="113" width = "4"/>
<rect x="35" y="503" height="97" width = "4"/>
<rect x="40" y="460" height="140" width = "4"/>
<rect x="45" y="458" height="142" width = "4"/>
<rect x="50" y="483" height="117" width = "4"/>
<rect x="55" y="419" height="181" width = "4"/>
<rect x="60" y="431" height="169" width = "4"/>
<rect x="65" y="441" height="159" width = "4"/>
<rect x="70" y="528" height="72" width = "4"/>
<rect x="75" y="501" height="99" width = "4"/>
<rect x="80" y="470" height="130" width = "4"/>
<rect x="85" y="431" height="169" width = "4"/>
<rect x="90" y="442" height="158" width = "4"/>
<rect x="95" y="456" height="144" width = "4"/>
<rect x="100" y="424" height="176" width = "4"/>
<rect x="105" y="378" height="222" width = "4"/>
<rect x="110" y="372" height="228" width = "4"/>
<rect x="115" y="445" height="155" width = "4"/>
<rect x="120" y="478" height="122" width = "4"/>
<rect x="125" y="474" height="126" width = "4"/>
<rect x="130" y="478" height="122" width = "4"/>
<rect x="135" y="491" height="109" width = "4"/>
<rect x="140" y="485" height="115" width = "4"/>
<rect x="145" y="410" height="190" width = "4"/>
<rect x="150" y="462" height="138" width = "4"/>
<rect x="155" y="444" height="156" width = "4"/>
<rect x="160" y="405" height="195" width = "4"/>
<rect x="165" y="343" height="257" width = "4"/>
<rect x="170" y="379" height="221" width = "4"/>
<rect x="175" y="498" height="102" width = "4"/>
<rect x="180" y="521" height="79" width = "4"/>
<rect x="185" y="491" height="109" width = "4"/>
<rect x="190" y="506" height="94" width = "4"/>
<rect x="195" y="445" height="155" width = "4"/>
<rect x="200" y="484" height="116" width = "4"/>
<rect x="205" y="548" height="52" width = "4"/>
<rect x="210" y="561" height="39" width = "4"/>
<rect x="215" y="539" height="61" width = "4"/>
<rect x="220" y="488" height="112" width = "4"/>
<rect x="225" y="515" height="85" width = "4"/>
<rect x="230" y="522" height="78" width = "4"/>
<rect x="235" y="553" height="47" width = "4"/>
<rect x="240" y="570" height="30" width = "4"/>
<rect x="245" y="561" height="39" width = "4"/>
<rect x="250" y="533" height="67" width = "4"/>
<rect x="255" y="531" height="69" width = "4"/>
<rect x="260" y="536" height="64" width = "4"/>
<rect x="265" y="575" height="25" width = "4"/>
<rect x="270" y="546" height="54" width = "4"/>
<rect x="275" y="517" height="83" width = "4"/>
<rect x="280" y="541" height="59" width = "4"/>
<rect x="285" y="573" height="27" width = "4"/>
<rect x="290" y="577" height="23" width = "4"/>
<rect x="295" y="568" height="32" width = "4"/>
<rect x="300" y="555" height="45" width = "4"/>
<rect x="305" y="546" height="54" width = "4"/>
<rect x="310" y="507" height="93" width = "4"/>
<rect x="315" y="535" height="65" width = "4"/>
<rect x="320" y="559" height="41" width = "4"/>
<rect x="325" y="528" height="72" width = "4"/>
<rect x="330" y="502" height="98" width = "4"/>
<rect x="335" y="527" height="73" width = "4"/>
<rect x="340" y="509" height="91" width = "4"/>
<rect x="345" y="504" height="96" width = "4"/>
<rect x="350" y="530" height="70" width = "4"/>
<rect x="355" y="518" height="82" width = "4"/>
<rect x="360" y="492" height="108" width = "4"/>
<rect x="365" y="446" height="154" width = "4"/>
<rect x="370" y="507" height="93" width = "4"/>
<rect x="375" y="498" height="102" width = "4"/>
<rect x="380" y="497" height="103" width = "4"/>
<rect x="385" y="463" height="137" width = "4"/>
<rect x="390" y="497" height="103" width = "4"/>
<rect x="395" y="519" height="81" width = "4"/>
<rect x="400" y="468" height="132" width = "4"/>
<rect x="405" y="475" height="125" width = "4"/>
<rect x="410" y="460" height="140" width = "4"/>
<rect x="415" y="568" height="32" width = "4"/>
<rect x="420" y="564" height="36" width = "4"/>
<rect x="425" y="541" height="59" width = "4"/>
<rect x="430" y="528" height="72" width = "4"/>
<rect x="435" y="526" height="74" width = "4"/>
<rect x="440" y="562" height="38" width = "4"/>
<rect x="445" y="576" height="24" width = "4"/>
<rect x="450" y="581" height="19" width = "4"/>
<rect x="455" y="578" height="22" width = "4"/>
<rect x="460" y="508" height="92" width = "4"/>
<rect x="465" y="525" height="75" width = "4"/>
<rect x="470" y="556" height="44" width = "4"/>
<rect x="475" y="581" height="19" width = "4"/>
<rect x="480" y="593" height="7" width = "4"/>
<rect x="485" y="595" height="5" width = "4"/>
<rect x="490" y="584" height="16" width = "4"/>
<rect x="495" y="597" height="3" width = "4"/>
<rect x="500" y="598" height="2" width = "4"/>
<rect x="505" y="590" height="10" width = "4"/>
<rect x="510" y="597" height="3" width = "4"/>
<rect x="515" y="597" height="3" width = "4"/>
<rect x="520" y="600" height="0" width = "4"/>
<rect x="525" y="600" height="0" width = "4"/>
<rect x="530" y="596" height="4" width = "4"/>
<rect x="535" y="593" height="7" width = "4"/>
<rect x="540" y="594" height="6" width = "4"/>
<rect x="545" y="558" height="42" width = "4"/>
<rect x="550" y="544" height="56" width = "4"/>
<rect x="555" y="547" height="53" width = "4"/>
<rect x="560" y="568" height="32" width = "4"/>
<rect x="565" y="555" height="45" width = "4"/>
<rect x="570" y="537" height="63" width = "4"/>
<rect x="575" y="536" height="64" width = "4"/>
<rect x="580" y="521" height="79" width = "4"/>
<rect x="585" y="488" height="112" width = "4"/>
<rect x="590" y="572" height="28" width = "4"/>
<rect x="595" y="545" height="55" width = "4"/>
<rect x="600" y="524" height="76" width = "4"/>
<rect x="605" y="489" height="111" width = "4"/>
<rect x="610" y="490" height="110" width = "4"/>
<rect x="615" y="493" height="107" width = "4"/>
<rect x="620" y="423" height="177" width = "4"/>
<rect x="625" y="504" height="96" width = "4"/>
<rect x="630" y="504" height="96" width = "4"/>
<rect x="635" y="366" height="234" width = "4"/>
<rect x="640" y="311" height="289" width = "4"/>
<rect x="645" y="363" height="237" width = "4"/>
<rect x="650" y="28" height="572" width = "4"/>
<rect x="655" y="443" height="157" width = "4"/>
<rect x="660" y="386" height="214" width = "4"/>
<rect x="665" y="490" height="110" width = "4"/>
<rect x="670" y="442" height="158" width = "4"/>
<rect x="675" y="566" height="34" width = "4"/>
<rect x="680" y="352" height="248" width = "4"/>
<rect x="685" y="377" height="223" width = "4"/>
<rect x="690" y="317" height="283" width = "4"/>
<rect x="695" y="598" height="2" width = "4"/>
<rect x="700" y="600" height="0" width = "4"/>
<rect x="705" y="600" height="0" width = "4"/>
<rect x="710" y="576" height="24" width = "4"/>
<rect x="715" y="587" height="13" width = "4"/>
<rect x="720" y="590" height="10" width = "4"/>
<rect x="725" y="574" height="26" width = "4"/>
<rect x="730" y="596" height="4" width = "4"/>
<rect x="735" y="600" height="0" width = "4"/>
<rect x="740" y="600" height="0" width = "4"/>
<rect x="745" y="595" height="5" width = "4"/>
<rect x="750" y="587" height="13" width = "4"/>
<rect x="755" y="594" height="6" width = "4"/>
<rect x="760" y="600" height="0" width = "4"/>
<rect x="765" y="600" height="0" width = "4"/>
<rect x="770" y="598" height="2" width = "4"/>
<rect x="775" y="594" height="6" width = "4"/>
<rect x="780" y="597" height="3" width = "4"/>
<rect x="785" y="598" height="2" width = "4"/>
<rect x="790" y="600" height="0" width = "4"/>
<rect x="795" y="600" height="0" width = "4"/>
<rect x="800" y="600" height="0" width = "4"/>
<rect x="805" y="599" height="1" width = "4"/>
<rect x="810" y="597" height="3" width = "4"/>
<rect x="815" y="599" height="1" width = "4"/>
<rect x="820" y="597" height="3" width = "4"/>
<rect x="825" y="597" height="3" width = "4"/>
<rect x="830" y="598" height="2" width = "4"/>
</svg>
